<?xml version="1.0" encoding="utf-8"?>
<!-- Generator: Adobe Illustrator 19.1.0, SVG Export Plug-In . SVG Version: 6.00 Build 0)  -->
<svg version="1.1" id="Layer_1" xmlns="http://www.w3.org/2000/svg" xmlns:xlink="http://www.w3.org/1999/xlink" x="0px" y="0px"
	 viewBox="0 0 40 40" style="enable-background:new 0 0 40 40;" xml:space="preserve">
<style type="text/css">
	.st0{fill:#DEDEDE;}
</style>
<g>
	<path class="st0" d="M40,40H0V0h40V40z M1.9,38.1h36.2V1.9H1.9V38.1z"/>
</g>
<path class="st0" d="M24,18.4c0.1,0.6,0.2,1.2,0.2,1.8c0,5-3.4,8.6-8.4,8.6C10.9,28.8,7,24.9,7,20s3.9-8.8,8.8-8.8
	c2.4,0,4.4,0.9,5.9,2.3L19.1,16v0c-0.9-0.9-2.1-1.3-3.4-1.3c-2.9,0-5.3,2.5-5.3,5.4c0,2.9,2.4,5.4,5.3,5.4c2.6,0,4.4-1.5,4.8-3.6
	h-4.8v-3.4H24z M30.6,18.9v-2.7h-2.2v2.7h-2.7v2.2h2.7v2.7h2.2v-2.7h2.7v-2.2H30.6z"/>
</svg>
