<?xml version="1.0" encoding="utf-8"?>
<!-- Generator: Adobe Illustrator 19.1.0, SVG Export Plug-In . SVG Version: 6.00 Build 0)  -->
<svg version="1.1" id="Layer_1" xmlns="http://www.w3.org/2000/svg" xmlns:xlink="http://www.w3.org/1999/xlink" x="0px" y="0px"
	 viewBox="0 0 40 40" style="enable-background:new 0 0 40 40;" xml:space="preserve">
<style type="text/css">
	.st0{fill:#DEDEDE;}
</style>
<g>
	<path class="st0" d="M40,40H0V0h40V40z M1.9,38.1h36.2V1.9H1.9V38.1z"/>
</g>
<path class="st0" d="M31.3,12.3c-0.9,0.4-1.8,0.6-2.7,0.8c1-0.6,1.7-1.5,2.1-2.6c-0.9,0.5-1.9,0.9-3,1.2c-0.9-0.9-2.1-1.5-3.5-1.5
	c-2.6,0-4.8,2.1-4.8,4.8c0,0.4,0,0.7,0.1,1.1c-4-0.2-7.5-2.1-9.8-5C9.2,11.6,9,12.4,9,13.3c0,1.7,0.9,3.1,2.2,4
	c-0.8,0-2.1-0.2-2.1-0.6c0,0,0,0,0,0.1c0,2.3,1.6,4.2,3.8,4.7c-0.4,0.1-0.8,0.2-1.3,0.2c-0.3,0-0.6,0-0.9-0.1
	c0.6,1.9,2.4,3.3,4.5,3.3c-1.6,1.3-3.7,2-5.9,2c-0.4,0-0.8,0-1.1-0.1c2.1,1.4,4.6,2.1,7.3,2.1c8.8,0,13.6-7.3,13.6-13.6
	c0-0.2,0-0.4,0-0.6C29.8,14.1,30.6,13.2,31.3,12.3"/>
</svg>
