<?xml version="1.0" encoding="utf-8"?>
<!-- Generator: Adobe Illustrator 19.1.0, SVG Export Plug-In . SVG Version: 6.00 Build 0)  -->
<svg version="1.1" xmlns="http://www.w3.org/2000/svg" xmlns:xlink="http://www.w3.org/1999/xlink" x="0px" y="0px"
	 viewBox="0 0 652 289.4" style="enable-background:new 0 0 652 289.4;" xml:space="preserve">
<style type="text/css">
	.st0{fill:#FFAE1A;}
	.st1{fill:#FFFFFF;}
</style>
<g id="Layer_1">
	<g>
		<path class="st0" d="M144.7,144.7V99.1h-34.9l0,0L91.2,80.4V45.6H45.6v45.6h34.9l18.7,18.7l0,0V134l0,0l-18.7,18.7H45.6v45.6h45.6
			v-34.8l18.7-18.7H144.7z M60.8,60.8H76V76H60.8V60.8z M76,183H60.8v-15.2H76V183z"/>
		<g>
			<g id="XMLID_2_">
				<g>
					<path class="st1" d="M195.2,243.8h-20.1v-99.1h20.1v6c3.2-3.9,10.4-7.6,18.1-7.6c21.1,0,33,17.5,33,37.9
						c0,20.4-12,37.7-33,37.7c-7.8,0-14.9-3.7-18.1-7.6V243.8z M195.2,192.8c2.4,5,7.8,8.4,13.6,8.4c10.9,0,17.3-8.7,17.3-20.2
						c0-11.7-6.5-20.4-17.3-20.4c-6,0-11.2,3.6-13.6,8.4V192.8z"/>
				</g>
				<g>
					<path class="st1" d="M319.2,217.1h-20.1v-6.6c-4,4.5-11,8.3-19.4,8.3c-16.2,0-25.4-10.7-25.4-26.7v-47.3h20.1v43.2
						c0,7.6,3.7,12.8,11.7,12.8c6.2,0,11.5-3.7,13-10v-46h20.2V217.1z"/>
				</g>
				<g>
					<path class="st1" d="M352.6,243.8h-20.1v-99.1h20.1v6c3.2-3.9,10.4-7.6,18.1-7.6c21.1,0,33,17.5,33,37.9
						c0,20.4-12,37.7-33,37.7c-7.8,0-14.9-3.7-18.1-7.6V243.8z M352.6,192.8c2.4,5,7.8,8.4,13.6,8.4c10.9,0,17.3-8.7,17.3-20.2
						c0-11.7-6.5-20.4-17.3-20.4c-6,0-11.2,3.6-13.6,8.4V192.8z"/>
				</g>
				<g>
					<path class="st1" d="M432.6,243.8h-20.1v-99.1h20.1v6c3.2-3.9,10.4-7.6,18.1-7.6c21.1,0,33,17.5,33,37.9
						c0,20.4-12,37.7-33,37.7c-7.8,0-14.9-3.7-18.1-7.6V243.8z M432.6,192.8c2.4,5,7.8,8.4,13.6,8.4c10.9,0,17.3-8.7,17.3-20.2
						c0-11.7-6.5-20.4-17.3-20.4c-6,0-11.2,3.6-13.6,8.4V192.8z"/>
				</g>
				<g>
					<path class="st1" d="M555.8,193.4c-2.6,15.4-13.9,25.3-32.1,25.3c-21.1,0-35.1-15.4-35.1-37.7c0-21.9,14.6-37.9,34.8-37.9
						c21.2,0,32.9,14.7,32.9,36v6.2h-48.3c0.6,10.9,6.8,17.3,15.7,17.3c6.8,0,11.8-2.9,13.4-9.1H555.8z M508.5,173h28
						c-0.2-7.6-4.7-13.6-13-13.6C515.8,159.4,510.3,164.1,508.5,173z"/>
				</g>
				<g>
					<path class="st1" d="M569.4,160.9h-11v-16.2h11v-19.6h19.9v19.6h15.9v16.2h-15.9v31.7c0,5.7,3.1,8.3,8.3,8.3
						c3.1,0,6.5-1,8.7-2.4v17.8c-2.8,1.5-7.6,2.3-13,2.3c-14.7,0-24-7.3-24-23.3V160.9z"/>
				</g>
			</g>
		</g>
	</g>
</g>
<g id="Layer_2">
</g>
<g id="Layer_3">
</g>
<g id="Layer_4">
</g>
</svg>
