<?xml version="1.0" encoding="utf-8"?>
<!-- Generator: Adobe Illustrator 19.1.0, SVG Export Plug-In . SVG Version: 6.00 Build 0)  -->
<svg version="1.1" id="Layer_1" xmlns="http://www.w3.org/2000/svg" xmlns:xlink="http://www.w3.org/1999/xlink" x="0px" y="0px"
	 viewBox="0 0 189 189" style="enable-background:new 0 0 189 189;" xml:space="preserve">
<style type="text/css">
	.st0{fill:#222222;}
</style>
<g>
	<path class="st0" d="M66.8,93.3c-15.6,0-28.3-12.7-28.3-28.4s12.7-28.4,28.3-28.4s28.3,12.7,28.3,28.4S82.5,93.3,66.8,93.3
		 M66.8,23.3c-22.9,0-41.5,18.7-41.5,41.6c0,22.9,18.6,41.6,41.5,41.6s41.5-18.7,41.5-41.6C108.4,42,89.7,23.3,66.8,23.3"/>
	<path class="st0" d="M14.3,64.9c0-29,23.6-52.6,52.6-52.6c29,0,52.6,23.6,52.6,52.6c0,29-23.6,52.6-52.6,52.6
		C37.8,117.5,14.3,93.9,14.3,64.9 M188.5,158.2l-63.9-64c4.5-8.8,7-18.8,7-29.3C131.7,29.1,102.6,0,66.8,0S2,29.1,2,64.9
		s29.1,64.9,64.8,64.9c9.4,0,18.2-2,26.3-5.6l64.7,64.8L188.5,158.2z"/>
</g>
</svg>
