<?xml version="1.0" encoding="utf-8"?>
<!-- Generator: Adobe Illustrator 19.1.0, SVG Export Plug-In . SVG Version: 6.00 Build 0)  -->
<svg version="1.1" id="Layer_1" xmlns="http://www.w3.org/2000/svg" xmlns:xlink="http://www.w3.org/1999/xlink" x="0px" y="0px"
	 viewBox="0 0 189 189" style="enable-background:new 0 0 189 189;" xml:space="preserve">
<style type="text/css">
	.st0{fill:#FFFFFF;}
</style>
<g>
	<path class="st0" d="M187.8,158.2l-63.9-64c4.5-8.8,7-18.8,7-29.3C130.9,29.1,101.8,0,66.1,0S1.2,29.1,1.2,64.9
		s29.1,64.9,64.8,64.9c9.4,0,18.2-2,26.3-5.6L157,189L187.8,158.2z M13.5,64.9c0-29,23.6-52.6,52.6-52.6c29,0,52.6,23.6,52.6,52.6
		c0,29-23.6,52.6-52.6,52.6C37.1,117.5,13.5,93.9,13.5,64.9"/>
	<path class="st0" d="M46,85C35,74,35,56,45.9,45l-9.3-9.3c-16.1,16.2-16.1,42.5,0,58.7c0,0,0.1,0.1,0.1,0.1l9.4-9.4
		C46.1,85,46,85,46,85"/>
</g>
</svg>
