<?xml version="1.0" encoding="UTF-8"?>
<!-- Generator: Adobe Illustrator 17.1.0, SVG Export Plug-In . SVG Version: 6.00 Build 0)  -->
<!DOCTYPE svg PUBLIC "-//W3C//DTD SVG 1.1//EN" "http://www.w3.org/Graphics/SVG/1.1/DTD/svg11.dtd">
<svg version="1.1" id="Layer_1" xmlns="http://www.w3.org/2000/svg" xmlns:xlink="http://www.w3.org/1999/xlink" x="0px" y="0px" viewBox="18.5 335.5 574.8 122.4" enable-background="new 18.5 335.5 574.8 122.4" xml:space="preserve">
<g>
	<g>
		<path fill="#3350A3" d="M69.9,411.1c0,13.4-6,21.4-20,21.4c-5.3,0-11.4-0.7-16.2-1.7v25l-15.2,2.1v-87.2h12.1l1.5,5.1    c5.3-3.9,11.6-6.3,19.1-6.3c12.2,0,18.7,7.2,18.7,21V411.1z M33.7,418c4,0.9,9.1,1.6,13.4,1.6c5.5,0,7.6-2.6,7.6-8.1v-21.4    c0-5-1.9-7.7-7.5-7.7c-5,0-10.3,2.5-13.6,5.5L33.7,418L33.7,418z"/>
		<path fill="#3350A3" d="M92,370.7V413c0,3.2,1.4,4.9,4.9,4.9c3.7,0,10.3-2.2,15.8-5.1v-42h15.2v60.6h-11.6l-1.5-5.1    c-7.6,3.7-17.2,6.3-24.3,6.3c-10.1,0-13.7-7.1-13.7-17.9v-43.9H92z"/>
		<path fill="#3350A3" d="M188,411.1c0,13.4-6,21.4-20,21.4c-5.4,0-11.4-0.7-16.2-1.7v25l-15.2,2.1v-87.2h12.1l1.5,5.1    c5.3-3.9,11.6-6.3,19.2-6.3c12.2,0,18.7,7.2,18.7,21V411.1z M151.8,418c4,0.9,9.1,1.6,13.4,1.6c5.5,0,7.6-2.6,7.6-8.1v-21.4    c0-5-1.9-7.7-7.5-7.7c-5,0-10.3,2.5-13.6,5.5V418z"/>
		<path fill="#3350A3" d="M246.2,411.1c0,13.4-6,21.4-20,21.4c-5.3,0-11.5-0.7-16.2-1.7v25l-15.2,2.1v-87.2h12.1l1.5,5.1    c5.3-3.9,11.6-6.3,19.2-6.3c12.2,0,18.7,7.2,18.7,21L246.2,411.1L246.2,411.1z M210,418c4,0.9,9.1,1.6,13.4,1.6    c5.5,0,7.6-2.6,7.6-8.1v-21.4c0-5-1.9-7.7-7.5-7.7c-5,0-10.3,2.5-13.6,5.5L210,418L210,418z"/>
		<path fill="#3350A3" d="M279.8,420.1c5.8,0,11.9-0.9,18.5-2.9l2.4,11.5c-6.8,2.6-15.1,3.9-22.3,3.9c-19,0-25.6-8.8-25.6-23.4v-16    c0-12.8,5.7-23.6,25.1-23.6c19.4,0,23.8,11.3,23.8,24.4v12.9H268v3.1C268,417.2,270.6,420.1,279.8,420.1 M268,394.6h19.3v-3    c0-5.7-1.7-9.7-9.2-9.7c-7.4,0-10.1,4-10.1,9.7L268,394.6L268,394.6z"/>
		<path fill="#3350A3" d="M343.4,430.2c-3.2,1.4-9.5,2.3-13.3,2.3c-11.1,0-16.7-5.2-16.7-16v-33.7h-9.1v-12.1h9.1v-15.1l15.2-2.1    v17.2h15.5l-1,12.1h-14.6v31.7c0,3.2,1.5,5.3,5.5,5.3c2.2,0,5-0.5,7.6-1.2L343.4,430.2z"/>
		<path fill="#F47D44" d="M372.4,408.2c0,6.6,2.8,9.6,10.3,9.6c4.8,0,8.5-0.5,13.1-1.6l2.4,15.7c-6.4,1.4-11,2-15.4,2    c-20.7,0-29.2-7.7-29.2-25.9v-14.5c0-18.2,8.5-25.9,29.2-25.9c4.4,0,9,0.5,15.4,2l-2.4,15.7c-3.9-0.9-9.4-1.6-13.1-1.6    c-7.6,0-10.3,3-10.3,9.6V408.2z"/>
		<path fill="#F47D44" d="M521,432.5v-42.2c0-2.9-1.3-4.6-4.6-4.6c-3.4,0-9.7,2.3-13.8,4.6v42.2h-18.9v-63.8h14l2,4.8    c7.9-3.8,18.1-6.2,25.4-6.2c10.9,0,14.7,8.1,14.7,20.4v44.7H521z"/>
		<path fill="#F47D44" d="M591,356.7c-2.6-0.5-6.2-0.9-8.4-0.9c-6,0-6.4,2.6-6.4,6.8v7.5h15.1l-1.3,15.5h-13.8v47h-18.9v-47h-9.7    V370h9.7v-9.6c0-13.1,6.2-20.4,21.6-20.4c5.4,0,9.3,0.8,14.4,1.8L591,356.7z"/>
		<path fill="#F47D44" d="M438.7,360.5c-21.2,0-38.5,17.2-38.5,38.5c0,21.2,17.2,38.5,38.5,38.5c21.2,0,38.5-17.2,38.5-38.5    C477.1,377.7,459.9,360.5,438.7,360.5z M440.7,373.8c21.8,6.6,16.1,28.6,16.1,28.6c-0.8-3.3-6.2-5.5-6.2-5.5    c0.8-6.1-0.5-10-0.5-10c-6.6-14.8-21.2-9.7-21.2-9.7l-0.6-2.2C432.2,372.3,440.7,373.8,440.7,373.8z M453.6,411    c-1.9,2.1-5.2,2.3-7.3,0.4c-2.1-1.9-2.3-5.2-0.4-7.3c1.9-2.1,5.2-2.3,7.3-0.4C455.3,405.6,455.5,408.8,453.6,411z M442.6,388.9    c-1.9,2.1-5.2,2.3-7.3,0.4c-2.1-1.9-2.3-5.2-0.4-7.3c1.9-2.1,5.2-2.3,7.3-0.4C444.4,383.5,444.5,386.8,442.6,388.9z M420.5,420.7    c-4.2-2.2-6.8-10.4-6.8-10.4c-4.5-22.4,17.7-27.7,17.7-27.7c-2.5,2.3-2,8-2,8c-5.7,2.2-8.6,5.2-8.6,5.2    c-10,12.8,1.4,23.3,1.4,23.3L420.5,420.7z M421.8,410.4c-2.1-1.9-2.3-5.2-0.4-7.3c1.9-2.1,5.2-2.3,7.3-0.4    c2.1,1.9,2.3,5.2,0.4,7.3C427.2,412.1,423.9,412.3,421.8,410.4z M459.1,415.2c-16.8,15.5-32.8-0.6-32.8-0.6c3.2,1,7.9-2.5,7.9-2.5    c4.9,3.7,8.9,4.6,8.9,4.6c16.1,1.9,19.2-13.3,19.2-13.3l2.2,0.6C464.7,408.8,459.1,415.2,459.1,415.2z"/>
	</g>
	<g>
		<g>
			<path fill="#F47D44" d="M481.1,354.6c3-2.8,5.4-5.1,8-7.6c2.7-2.7,3-3,3.3-5l0.1-0.8c0-0.2,0-0.3,0-0.4c0-1.1-0.9-1.5-3-1.5     c-1.6,0-4.2,0.4-5.8,0.8l-0.4-3.3c2.1-0.7,4.8-1.1,7-1.1c4.1,0,6.2,1.7,6.2,4.5c0,0.3,0,0.7-0.1,1.1l-0.1,0.8     c-0.5,3-0.7,3.7-4.6,7.6c-2.5,2.5-3.3,3.3-5.2,5h7.7l-0.6,3.6h-13.3L481.1,354.6z"/>
			<path fill="#F47D44" d="M499,353.7c0-0.4,0.1-1,0.1-1.4l1.9-10.8c0.7-4.1,3-6,8.5-6c4,0,6.3,2.1,6.3,5.1c0,0.3,0,0.7-0.1,1.1     l-1.9,10.7c-0.7,3.9-2.3,6-8.4,6C500.8,358.5,499,356.5,499,353.7z M511.6,342.1c0.1-0.4,0.1-0.7,0.1-0.9c0-1.3-0.8-2-2.9-2     c-2.6,0-3.4,0.9-3.8,3l-1.8,9.9c-0.1,0.4-0.1,0.8-0.1,1.1c0,1.2,0.5,1.7,2.9,1.7c2.7,0,3.5-0.9,3.8-3L511.6,342.1z"/>
			<path fill="#F47D44" d="M524.2,340.5l-4.5,2.2l-1.4-3.2l7.1-3.7h3.8l-3.9,22.3h-4.1L524.2,340.5z"/>
			<path fill="#F47D44" d="M543.6,358.2h-4.1l0.9-5.1H530l0.6-3.7l11.1-13.5h5.8l-2.5,13.8h2.9l-0.5,3.4h-3L543.6,358.2z      M534.8,349.7h6.2l1.8-9.9L534.8,349.7z"/>
		</g>
	</g>
</g>
</svg>