<?xml version="1.0" encoding="utf-8"?>
<!DOCTYPE svg PUBLIC "-//W3C//DTD SVG 1.1//EN" "http://www.w3.org/Graphics/SVG/1.1/DTD/svg11.dtd">
<svg version="1.1" id="icon-users" xmlns="http://www.w3.org/2000/svg" xmlns:xlink="http://www.w3.org/1999/xlink" x="0px" y="0px" viewBox="0 0 82 82" enable-background="new 0 0 82 82" xml:space="preserve">
	<g class="user user-left">
		<path fill="#ffffff" class="shape shape-head" d="M16.6,24.6c-6,0-10.9-4.9-10.9-10.9S10.6,2.9,16.6,2.9s10.9,4.9,10.9,10.9S22.5,24.6,16.6,24.6z"/>
		<path fill="#ffffff" class="shape shape-body" d="M14.2,46.3H8.5c-4.2,0-8.2-2-8.2-6.7c0-3.4-0.1-15,5.3-15c0.9,0,5.3,3.6,11,3.6c2,0,3.8-0.3,5.6-1C22.1,28.1,22,29.1,22,30 c0,3.9,1.2,7.7,3.4,10.9C21,41,17,42.9,14.2,46.3z"/>
	</g>
	<g class="user user-center">
		<path fill="#ffffff" class="shape shape-head" d="M41,46.3c-9,0-16.3-7.3-16.3-16.3c0-9,7.3-16.3,16.3-16.3c9,0,16.3,7.3,16.3,16.3C57.3,39,50,46.3,41,46.3z"/>
		<path fill="#ffffff" class="shape shape-body" d="M59.5,78.9H22.5c-6.8,0-11.3-4.1-11.3-11c0-9.6,2.2-24.3,14.7-24.3c1.4,0,6.7,5.9,15.2,5.9c8.5,0,13.7-5.9,15.2-5.9 c12.4,0,14.7,14.7,14.7,24.3C70.8,74.7,66.3,78.9,59.5,78.9z"/>
	</g>
	<g class="user user-right">
		<path fill="#ffffff" class="shape shape-head" d="M65.4,24.6c-6,0-10.9-4.9-10.9-10.9S59.4,2.9,65.4,2.9s10.9,4.9,10.9,10.9S71.4,24.6,65.4,24.6z"/>
		<path fill="#ffffff" class="shape shape-body" d="M73.5,46.3h-5.7C65,42.9,61,41,56.6,40.9c2.2-3.2,3.4-7,3.4-10.9c0-0.9-0.1-1.9-0.2-2.8c1.8,0.6,3.7,1,5.6,1 c5.7,0,10.1-3.6,11-3.6c5.4,0,5.3,11.5,5.3,15C81.7,44.3,77.7,46.3,73.5,46.3z"/>
	</g>
</svg>