<?xml version="1.0" encoding="utf-8"?>
<!DOCTYPE svg PUBLIC "-//W3C//DTD SVG 1.1//EN" "http://www.w3.org/Graphics/SVG/1.1/DTD/svg11.dtd">
<svg version="1.1" id="icon-home" xmlns="http://www.w3.org/2000/svg" xmlns:xlink="http://www.w3.org/1999/xlink" x="0px" y="0px" viewBox="0 0 82 82" enable-background="new 0 0 82 82" xml:space="preserve">
	<g class="house">
		<path fill="#ffffff" class="shape shape-house" d="M81.7,44.8c-0.3,0.7-1.1,1-2.4,1h-7.6v28.1c0,1-0.1,1.8-0.4,2.5c-0.2,0.7-1.1,1.1-2.5,1.1H50.3V49.4H31.7v28.1H14.2 c-1.8,0-2.9-0.4-3.3-1.1c-0.4-0.7-0.5-1.6-0.5-2.5V45.8H2.7c-1.3,0-2.1-0.3-2.4-1c-0.3-0.7,0-1.5,1-2.4L37.6,5.9 c1-1,2.1-1.5,3.4-1.5c1.3,0,2.5,0.5,3.4,1.5l36.3,36.5C81.7,43.3,82,44.1,81.7,44.8z"/>
	</g>
</svg>
