<?xml version="1.0" encoding="utf-8"?>
<!DOCTYPE svg PUBLIC "-//W3C//DTD SVG 1.1//EN" "http://www.w3.org/Graphics/SVG/1.1/DTD/svg11.dtd">
<svg version="1.1" id="icon-tools" xmlns="http://www.w3.org/2000/svg" xmlns:xlink="http://www.w3.org/1999/xlink" x="0px" y="0px" viewBox="0 0 82 82" enable-background="new 0 0 82 82" xml:space="preserve">
	<g class="hammer">
		<path fill="#ffffff" class="shape shape-head" d="M12.8,29.4c-0.4,0.4-0.7,1-0.9,1.8c-0.2,0.8-0.2,1.4-0.2,2c0,0.6-0.1,0.9-0.2,0.9l-1.4,1.2c-0.8,0.7-1.3,1.2-1.5,1.4 c-0.9,0.8-1.6,0.7-2.3-0.3l-5.7-6.2c-0.6-0.7-0.5-1.3,0.2-2c0.1-0.1,0.6-0.5,1.5-1.1c0.9-0.7,1.4-1.1,1.6-1.3 c0.3-0.3,1.1-0.5,2.2-0.5s2.1-0.4,2.9-1.1c0.8-0.8,1.3-1.8,1.5-3.1c0.2-1.3,0.5-2.1,0.8-2.4c0.1,0,0.4-0.2,0.7-0.6	c0.4-0.4,1.1-1,2.1-1.8c1-0.8,2.1-1.7,3.3-2.5c7.3-4.9,12.3-7.5,15.2-7.8c6.6,0,10.6,0.1,12.1,0.2c0.7,0,0.4,0.2-0.7,0.7 c-6.5,2.8-10.7,4.9-12.4,6.2c-4.3,3-5.3,6.1-2.9,9.3c1.8,2.5,2.9,3.8,3.1,3.9c0.4,0.4,0.4,0.8-0.2,1.1l-6.2,5.7
			c-0.8,0.4-1.3,0.5-1.5,0.3c-2.3-2.6-4.2-4.2-5.8-4.9C16.7,27.7,14.9,28.1,12.8,29.4z"/>
		<path fill="#ffffff" class="shape shape-body" d="M36.2,31.5l33.4,38.8c1,1.2,0.9,2.2-0.2,3.1l-3.9,3.4c-1.2,0.8-2.2,0.7-3.1-0.3L28.7,38c-0.4-0.4-0.4-1,0-1.6l5.9-5.1	C35.2,30.9,35.7,30.9,36.2,31.5z"/>
	</g>
	<g class="wrench">
		<path fill="#ffffff" class="shape shape-head" d="M81.3,15c0.9,5.7,0.4,10.2-1.3,13.5c-2.7,4.8-6.9,6.5-12.6,5.1c-3-0.7-5.8,0.2-8.2,2.6l-6.7,6.4l-5.5-6.4l5.5-5.7	c1.3-1.3,2.1-2.7,2.5-4.3c0.4-1.6,0.5-3.3,0.5-5.3s0.1-3.5,0.4-4.7c0.7-3,4.5-6.1,11.4-9.1c0.7-0.3,1.1-0.2,1.5,0.2	c0.3,0.5,0.4,0.9,0.2,1.2c-0.7,0.7-1.9,2.8-3.7,6.5c-0.8,0.5-1.1,1.5-1,2.9c0.1,1.4,1.2,2.8,3.3,4.3c3.2,2.2,5.8,1.6,7.8-1.8 c0.3-0.7,1-1.8,2.1-3.3c1.1-1.6,1.7-2.5,1.8-2.7c0.2-0.5,0.6-0.8,1.1-0.7C80.9,13.7,81.2,14.1,81.3,15z"/>
		<path fill="#ffffff" class="shape shape-body" d="M11.4,70.8l20.7-20.2l6.2,7l-20,19.7c-1.1,1.1-2.1,1.2-3.1,0.3l-3.7-3.7C10.2,72.9,10.2,71.8,11.4,70.8z"/>
	</g>
	</svg>