<?xml version="1.0" encoding="utf-8"?>
<!DOCTYPE svg PUBLIC "-//W3C//DTD SVG 1.1//EN" "http://www.w3.org/Graphics/SVG/1.1/DTD/svg11.dtd">
<svg version="1.1" id="icon-users" xmlns="http://www.w3.org/2000/svg" xmlns:xlink="http://www.w3.org/1999/xlink" x="0px" y="0px" viewBox="0 0 82 82" enable-background="new 0 0 82 82" xml:space="preserve">
	<g class="users">
		<path fill="#ffffff" class="shape shape-user user-left" d="M41.9,55.5c4,1.7,7.5,3.4,10.4,5.1s4.4,3.3,4.4,5.1v11.2H0.2v-15c0-1,0.2-1.8,0.7-2.4c0.5-0.7,1.1-1.2,1.8-1.7 c0.7-0.5,1.4-0.9,2.2-1.3c0.8-0.4,1.5-0.7,2.1-0.9c4.1-1.7,7-3.4,8.5-5.1c1.5-1.7,2.3-4.1,2.3-7.3c0-0.9-0.1-1.5-0.4-2 c-0.3-0.4-0.6-0.9-1-1.4c-0.4-0.5-0.8-1.2-1.2-2c-0.4-0.9-0.8-2.1-1-3.7c-0.1-0.7-0.3-1.1-0.7-1.2c-0.3-0.2-0.7-0.4-1-0.6 C12.3,32,12,31.6,11.7,31c-0.3-0.6-0.5-1.7-0.6-3.3c0-1.1,0.2-1.9,0.5-2.4c0.2-0.3,0.4-0.5,0.7-0.7c-0.1-0.8-0.2-1.5-0.3-2.3 c-0.1-0.7-0.2-1.4-0.2-2.1c-0.1-0.8-0.1-1.5-0.2-2.3c-0.1-0.9,0-2,0.3-3.5c0.3-1.5,0.9-2.9,1.9-4.2c0.9-1.4,2.3-2.5,4-3.5 c1.7-1,4-1.5,6.8-1.5c2.8,0,5.1,0.5,6.8,1.5c1.7,1,3.1,2.1,4,3.5c0.9,1.4,1.5,2.8,1.9,4.2c0.3,1.5,0.4,2.6,0.3,3.5 c-0.1,0.8-0.2,1.5-0.2,2.3c-0.1,0.8-0.1,1.5-0.2,2.1c-0.1,0.8-0.2,1.5-0.3,2.3c0.1,0.1,0.3,0.3,0.5,0.7c0.4,0.7,0.7,1.5,0.7,2.4 c-0.1,1.6-0.3,2.7-0.7,3.3c-0.3,0.6-0.7,1-1,1.2c-0.3,0.2-0.6,0.4-0.9,0.6c-0.3,0.2-0.5,0.6-0.6,1.2c-0.2,1.6-0.5,2.9-1,3.7 c-0.4,0.9-0.8,1.5-1.2,2c-0.4,0.5-0.7,1-1,1.4c-0.3,0.4-0.4,1.1-0.4,2c0,3.2,0.8,5.6,2.3,7.3C35,52.1,37.8,53.8,41.9,55.5z"/>
		<path fill="#ffffff" class="shape shape-user user-right" d="M63.5,76.9V64.6c0-1.4-0.2-2.6-0.5-3.7c-0.3-1-1-2-2-2.9c-1-0.9-2.6-2-4.6-3.1c-2-1.1-4.6-2.5-7.9-4.2 c1.2-0.9,2-1.8,2.5-2.9c0.5-1.1,0.7-2.4,0.7-3.9c0-0.7-0.1-1.1-0.3-1.5c-0.2-0.3-0.5-0.7-0.7-1.1c-0.3-0.4-0.5-0.9-0.8-1.5 c-0.3-0.6-0.5-1.5-0.7-2.9c-0.1-0.5-0.3-0.9-0.5-1c-0.2-0.1-0.4-0.2-0.7-0.4c-0.2-0.2-0.4-0.5-0.7-0.9c-0.2-0.4-0.4-1.2-0.5-2.4 c0-1,0.2-1.6,0.5-2c0.1-0.2,0.3-0.4,0.5-0.5c-0.1-0.5-0.2-1.1-0.3-1.6c-0.1-0.5-0.2-1.1-0.2-1.6c-0.1-0.5-0.1-1.1-0.1-1.6 c-0.1-0.7-0.1-1.5,0.2-2.6c0.2-1.1,0.7-2.1,1.4-3.2c0.7-1,1.7-1.9,3-2.7c1.3-0.8,3-1.1,5.1-1.1c2.1,0,3.8,0.4,5.1,1.1 c1.4,0.8,2.4,1.7,3.1,2.7c0.7,1,1.2,2.1,1.4,3.2c0.2,1.1,0.3,2,0.2,2.6c-0.1,0.5-0.2,1.1-0.2,1.6c0,0.5-0.1,1.1-0.2,1.6 c-0.1,0.5-0.2,1.1-0.3,1.6l0.5,0.5c0.1,0.2,0.2,0.5,0.3,0.7c0.1,0.3,0.2,0.7,0.2,1.2c-0.1,1.2-0.3,2-0.5,2.4 c-0.2,0.4-0.4,0.7-0.7,0.9c-0.2,0.2-0.4,0.3-0.7,0.4c-0.2,0.1-0.4,0.4-0.5,1c-0.2,1.3-0.5,2.3-0.7,2.9c-0.3,0.6-0.5,1.1-0.8,1.5 c-0.3,0.4-0.5,0.7-0.7,1.1c-0.2,0.3-0.3,0.8-0.3,1.5c0,2.3,0.5,4.1,1.6,5.4c1.1,1.3,3.2,2.6,6.4,3.9c3,1.2,5.4,2.3,7.1,3.3 c1.7,1,2.9,2.1,3.5,3.3c0.2,0.4,0.4,1.5,0.6,3.3c0.2,1.8,0.3,3.7,0.4,5.8c0.1,2.4,0.2,5.1,0.2,8H63.5z"/>
	</g>
</svg>
