<?xml version="1.0" encoding="utf-8"?>
<!DOCTYPE svg PUBLIC "-//W3C//DTD SVG 1.1//EN" "http://www.w3.org/Graphics/SVG/1.1/DTD/svg11.dtd">
<svg version="1.1" id="icon-book" xmlns="http://www.w3.org/2000/svg" xmlns:xlink="http://www.w3.org/1999/xlink" x="0px" y="0px" viewBox="0 0 82 82" enable-background="new 0 0 82 82" xml:space="preserve">
	<g class="text">
		<path fill="#ffffff" class="shape shape-book" d="M70.6,22.9v47.5c0,0.8-0.3,1.5-1,2.1c-0.7,0.6-1.5,0.9-2.4,0.9c-0.9,0-1.8-0.2-2.6-0.7c-0.8-0.4-1.3-1.2-1.3-2.4V26.3
			c0-0.4,0-0.8-0.1-0.9c-0.1-0.2-0.4-0.4-0.9-0.6c-0.1,0-0.7-0.3-1.8-0.8c-1.1-0.6-2.4-1.3-4-2.1c-1.6-0.8-3.4-1.8-5.4-3
			c-2-1.1-4.1-2.3-6.2-3.4c-5-2.7-10.5-5.7-16.7-9c-0.2-0.1-0.8-0.2-1.9-0.3c-1-0.1-2.3,0.3-3.9,1.2c-1.5,0.7-2.6,1.4-3.3,2.1
			c-0.7,0.7-1.2,1.3-1.4,1.6l34.5,19.3c1,0.6,1.5,1.4,1.5,2.4v46.4c0,1.2-0.5,2-1.5,2.4c-0.3,0.2-0.8,0.3-1.4,0.3
			c-0.8,0-1.4-0.1-1.7-0.3c-0.1-0.1-1-0.7-2.7-1.8c-1.7-1.1-3.8-2.4-6.2-3.9c-2.5-1.5-5.2-3.2-8-5c-2.9-1.8-5.6-3.5-8.1-5.1
			c-2.5-1.6-4.7-2.9-6.6-4.1c-1.9-1.1-3-1.8-3.3-2c-0.6-0.3-1.1-0.8-1.5-1.3c-0.5-0.5-0.7-1-0.7-1.6l-0.5-44.3c0-0.4,0.1-1,0.2-1.8
			c0.1-0.7,0.4-1.6,1-2.6c0.8-1.1,1.9-2.3,3.5-3.5c1.5-1.2,3.2-2.2,5-3c1.8-0.8,3.6-1.3,5.4-1.5c1.8-0.2,3.3,0,4.6,0.7l38,19.6
			C70,21.1,70.6,21.9,70.6,22.9z"/>
	</g>
</svg>
