<?xml version="1.0" encoding="utf-8"?>
<!DOCTYPE svg PUBLIC "-//W3C//DTD SVG 1.1//EN" "http://www.w3.org/Graphics/SVG/1.1/DTD/svg11.dtd">
<svg version="1.1" id="icon-doc-text" xmlns="http://www.w3.org/2000/svg" xmlns:xlink="http://www.w3.org/1999/xlink" x="0px" y="0px" viewBox="0 0 82 82" enable-background="new 0 0 82 82" xml:space="preserve">
	<g class="text">
		<path fill="#ffffff" class="shape shape-line shape-top" d="M23.8,39.5v-3c0-0.4,0.1-0.7,0.4-1c0.3-0.3,0.6-0.4,1.1-0.4h32.2c0.4,0,0.8,0.1,1.1,0.4c0.3,0.3,0.4,0.6,0.4,1v3 c0,0.4-0.1,0.8-0.4,1.1C58.3,40.8,58,41,57.5,41H25.3c-0.4,0-0.8-0.1-1.1-0.4C24,40.3,23.8,39.9,23.8,39.5z"/>
		<path fill="#ffffff" class="shape shape-line shape-middle" d="M23.8,51.2v-3c0-0.4,0.1-0.8,0.4-1.1c0.3-0.3,0.6-0.4,1.1-0.4h32.2c0.4,0,0.8,0.1,1.1,0.4c0.3,0.3,0.4,0.6,0.4,1.1v3 c0,0.4-0.1,0.8-0.4,1.1c-0.3,0.3-0.6,0.4-1.1,0.4H25.3c-0.4,0-0.8-0.1-1.1-0.4C24,52,23.8,51.7,23.8,51.2z"/>
		<path fill="#ffffff" class="shape shape-line shape-bottom" d="M23.8,62.9v-3c0-0.4,0.1-0.8,0.4-1.1c0.3-0.3,0.6-0.4,1.1-0.4h32.2c0.4,0,0.8,0.1,1.1,0.4c0.3,0.3,0.4,0.6,0.4,1.1v3	c0,0.4-0.1,0.8-0.4,1.1c-0.3,0.3-0.6,0.4-1.1,0.4H25.3c-0.4,0-0.8-0.1-1.1-0.4C24,63.7,23.8,63.4,23.8,62.9z"/>
	</g>
	<g class="doc">
		<path fill="#ffffff" class="shape shape-doc" d="M76.1,20.8c-0.6-1.4-1.3-2.6-2.2-3.4L59.7,3.1c-0.8-0.9-2-1.6-3.4-2.2c-1.5-0.6-2.8-0.9-4-0.9h-41C10,0,8.6,0.5,7.7,1.3 C6.8,2.1,6,3.1,6,4.4v73.1c0,1.2,0.9,2.3,1.7,3.1C8.5,81.5,10,82,11.2,82h61.5c1.3,0,2.3-0.5,3.1-1.3c0.8-0.8,1.2-1.9,1.2-3.1V24.9 C77,23.6,76.7,22.2,76.1,20.8z M53,6.2c1,0.3,1.9,0.6,2.2,1l14.5,14.1c0.4,0.4,0.9,1.7,1.1,1.7H53V6.2z M71,76H12V6h35v18.9	c0,1.3,0.9,2.2,1.7,3c0.8,0.8,2.3,1.1,3.5,1.1H71V76z"/>
	</g>
</svg>