<?xml version="1.0" encoding="utf-8"?>
<!DOCTYPE svg PUBLIC "-//W3C//DTD SVG 1.1//EN" "http://www.w3.org/Graphics/SVG/1.1/DTD/svg11.dtd">
<svg version="1.1" id="icon-ticket" xmlns="http://www.w3.org/2000/svg" xmlns:xlink="http://www.w3.org/1999/xlink" x="0px" y="0px" viewBox="0 0 82 82" enable-background="new 0 0 82 82" xml:space="preserve">
	<g class="ticket">
		<path fill="#ffffff" class="shape shape-stub" d="M80.2,27.2L74,21.1c-1.8,1.9-4,2.8-6.5,2.8c-2.6,0-4.8-0.9-6.6-2.8c-1.9-1.9-2.8-4.1-2.8-6.6c0-2.6,0.9-4.7,2.8-6.5 l-6.1-6.1c-1.3-1.2-2.8-1.8-4.4-1.8c-1.7,0-3.1,0.6-4.3,1.8l-44,43.9c-1.2,1.2-1.8,2.7-1.8,4.4c0,1.7,0.6,3.2,1.8,4.3L8,60.8 c1.8-1.9,4-2.8,6.5-2.8c2.6,0,4.8,0.9,6.6,2.8c1.9,1.9,2.8,4.1,2.8,6.6c0,2.6-0.9,4.7-2.8,6.5l6.2,6.2c1.2,1.2,2.6,1.7,4.4,1.7 c1.7,0,3.2-0.6,4.4-1.7l44-44.1c1.2-1.2,1.7-2.6,1.7-4.3C81.9,29.9,81.3,28.4,80.2,27.2z M67,36.9L37,67c-0.6,0.6-1.3,0.9-2.2,0.9 c-0.9,0-1.6-0.3-2.3-0.9L15,49.4c-0.6-0.6-0.9-1.4-0.9-2.3c0-0.8,0.3-1.5,0.9-2.2l30-30c0.5-0.6,1.2-0.9,2.2-0.9s1.7,0.3,2.3,0.9 L67,32.5c0.6,0.7,0.9,1.5,0.9,2.3C67.9,35.6,67.6,36.3,67,36.9z"/>
		<rect fill="#ffffff" class="shape shape-center" x="21.4" y="30.1" transform="matrix(-0.7071 0.7071 -0.7071 -0.7071 98.9443 40.9081)" width="39.2" height="21.8"/>
	</g>
</svg>