<?xml version="1.0" encoding="utf-8"?>
<!DOCTYPE svg PUBLIC "-//W3C//DTD SVG 1.1//EN" "http://www.w3.org/Graphics/SVG/1.1/DTD/svg11.dtd">
<svg version="1.1" id="icon-graduation-cap" xmlns="http://www.w3.org/2000/svg" xmlns:xlink="http://www.w3.org/1999/xlink" x="0px" y="0px" viewBox="0 0 82 82" enable-background="new 0 0 82 82" xml:space="preserve">
	<g class="graduation-cap">
		<path fill="#ffffff" class="shape shape-cap" d="M13.7,50.2c0.9,3.8,2.1,6.8,3.8,8.8c1.6,2.1,4.5,4,8.5,5.7c4,1.7,7.2,3.4,9.4,5c2.2,1.6,4.1,2.4,5.6,2.4 c1.5,0,3.4-0.7,5.5-2.1c2.1-1.4,5.3-3,9.4-4.9c2-0.9,3.4-1.6,4.3-2.3c0.9-0.7,1.6-1.4,1.9-2.2c0.3-0.8,0.5-1.8,0.7-3 c0.1-1.2,0.4-2.8,0.8-4.7L41,64L13.7,50.2z"/>
		<path fill="#ffffff" class="shape shape-mortarboard" d="M79.9,30.1L45.9,11c-1.4-0.8-3.1-1.1-4.9-1.1c-1.9,0-3.5,0.4-4.9,1.1l-34,19.1c-1.3,0.8-2,1.7-2,2.7c0,1,0.7,1.9,2,2.7 l34,19.1c1.4,0.8,3,1.1,4.9,1.1c1.9,0,3.5-0.4,4.9-1.1l21.9-12.4l-23.9-5.6C43.4,36.9,42.4,37,41,37c-2.2,0-4-0.4-5.5-1.3 c-1.5-0.9-2.2-2-2.2-3.3c0-1.3,0.7-2.4,2.2-3.3c1.5-0.9,3.3-1.3,5.5-1.3c3.7,0,6.2,1,7.4,2.9l25.2,8.3l6.4-3.6c1.3-0.8,2-1.7,2-2.7 C81.9,31.8,81.2,30.9,79.9,30.1z"/>
		<path fill="#ffffff" class="shape shape-tassle" d="M69.8,47c0.4,1.9,0.7,4.3,0.8,7.4c0.1,3.1-0.3,7-1.1,11.9c0,0.3,0.3,0.7,0.8,1.1c0.5,0.4,1.2,0.7,1.9,0.9 c0.7,0.2,1.4,0.1,2-0.2c0.6-0.3,1-1.1,1.2-2.3c0.5-5.2,0.8-9.5,0.7-12.9c-0.1-3.4-0.3-6.1-0.7-8.2c-0.4-2.4-1-4.2-1.8-5.6l-5.7,3.1 C68.7,43.3,69.3,44.9,69.8,47z"/>
	</g>
</svg>
