<?xml version="1.0" encoding="utf-8"?>
<!DOCTYPE svg PUBLIC "-//W3C//DTD SVG 1.1//EN" "http://www.w3.org/Graphics/SVG/1.1/DTD/svg11.dtd">
<svg version="1.1" id="icon-lightbulb" xmlns="http://www.w3.org/2000/svg" xmlns:xlink="http://www.w3.org/1999/xlink" x="0px" y="0px" viewBox="0 0 82 82" enable-background="new 0 0 82 82" xml:space="preserve">
	<g class="lightbulb">
		<path fill="#ffffff" class="shape shape-highlight" d="M25.8,28.2c0-4.3,1.5-7.9,4.5-10.9c3-3,6.6-4.5,10.9-4.5c0.8,0,1.2,0.4,1.2,1.3c0,0.9-0.4,1.3-1.2,1.3 c-3.5,0-6.6,1.2-9.1,3.7c-2.5,2.5-3.7,5.5-3.7,9.1c0,0.8-0.4,1.2-1.3,1.2C26.2,29.4,25.8,29,25.8,28.2z"/>
		<path fill="#ffffff" class="shape shape-bulb" d="M61,8.3C55.5,2.8,48.9,0,41.1,0.1c-7.7,0.1-14.4,2.8-19.9,8.3C15.8,13.8,13,20.4,13,28.2c-0.1,2.9,0.7,6.2,2.4,9.9 c1.6,3.7,3.6,7.5,5.9,11.4s3.8,7.1,4.5,9.5c0.9,1.9,1.7,4.5,2.6,7.7c0.9,3.2,1.6,5.4,2,6.7c0.5,1.3,1.2,2.7,2.1,4.3 c0.9,1.6,2,2.7,3.4,3.2s3.1,0.8,5.2,0.9c2.2,0.1,3.9-0.2,5.1-0.9c1.3-0.7,2.4-1.8,3.4-3.2c1-1.4,1.8-2.9,2.2-4.3l2-6.7 c0.9-3,1.7-5.6,2.5-7.7c0.8-2.2,2.3-5.3,4.6-9.4c2.2-4.1,4.2-7.9,5.8-11.5c1.6-3.6,2.5-6.9,2.5-9.9C69.2,20.5,66.5,13.9,61,8.3z M44.6,75.9c-0.8,0.5-1.9,0.8-3.5,0.8c-1.4,0-2.4-0.2-3.1-0.6c-0.7-0.4-1.4-1.3-2-2.7l10.9-1.2C46.1,74.2,45.4,75.4,44.6,75.9z M49,65.2c-0.1,0.5-0.2,1-0.3,1.2c-0.3,1.2-0.7,2.2-1,3.1l-12.6,1.6c-0.4-1.4-0.9-3-1.5-4.9l15.6-2C49.2,64.4,49.1,64.7,49,65.2z M50.2,61.6l-17.4,2.2c-0.4-1.5-1-2.9-1.6-4.9H51C50.6,60,50.3,61,50.2,61.6z M57.4,45.8c-2,3.5-3.5,6.2-4.3,8.2h-24 c-0.8-2-2.2-4.8-4.3-8.2c-4.5-8.1-6.7-14-6.7-17.5c0-6.4,2.2-11.8,6.7-16.3c4.5-4.5,9.9-6.7,16.3-6.7s11.8,2.2,16.3,6.7 c4.5,4.5,6.7,10,6.7,16.3C64.1,31.7,61.9,37.5,57.4,45.8z"/>
	</g>
</svg>