<?xml version="1.0" encoding="utf-8"?>
<!DOCTYPE svg PUBLIC "-//W3C//DTD SVG 1.1//EN" "http://www.w3.org/Graphics/SVG/1.1/DTD/svg11.dtd">
<svg version="1.1" id="icon-help-circled" xmlns="http://www.w3.org/2000/svg" xmlns:xlink="http://www.w3.org/1999/xlink" x="0px" y="0px" viewBox="0 0 82 82" enable-background="new 0 0 82 82" xml:space="preserve">
	<g class="help-circled">
		<path fill="#ffffff" class="shape shape-display" d="M76.4,20.5c-3.8-6.2-8.8-11.2-14.9-14.9C55.4,2,48.6,0.1,41,0.1c-7.6,0-14.4,1.8-20.6,5.5C14.3,9.3,9.4,14.3,5.7,20.5 C2,26.7,0.2,33.6,0.2,41c0.4,7.4,2.2,14.3,5.5,20.5c3.3,6.2,8.2,11.2,14.8,14.9C27,80,33.9,81.8,41,81.8c7.2,0,14-1.8,20.5-5.5	C68,72.6,73,67.7,76.4,61.5c3.4-6.2,5.2-13,5.4-20.5S80.2,26.7,76.4,20.5z M48,66.5c0,0.5-0.3,0.8-0.6,1.1C47.1,68,46.6,68,46.1,68 H35.9c-0.5,0-1,0-1.3-0.4C34.3,67.3,34,67,34,66.5V56.3c0-0.5,0.3-0.7,0.6-1c0.3-0.3,0.8-0.3,1.3-0.3h10.2c0.5,0,1,0,1.3,0.3 c0.3,0.3,0.6,0.5,0.6,1V66.5z M60.8,35.1c-0.4,1.3-0.9,2.4-1.5,3.2c-0.6,0.9-1.4,1.7-2.4,2.6c-1,0.8-1.7,1.4-2.4,1.8l-2.7,1.5 c-1.1,0.7-2.1,1.6-2.9,2.7c-0.8,1.1-1.1,1.9-1.1,2.5c0,0.6-0.2,0.9-0.5,1.2C47,50.9,46.6,51,46.1,51H35.9c-0.5,0-1-0.1-1.3-0.4 C34.3,50.3,34,50,34,49.5v-1.9c0-2.4,1-4.6,2.9-6.7c1.9-2,4-3.6,6.2-4.6c1.7-0.8,2.9-1.6,3.6-2.4c0.7-0.8,1.1-1.9,1.1-3.2 c0-1.1-0.7-2.2-2-3.1c-1.3-1-2.9-1.4-4.7-1.4c-1.8,0-3.3,0.4-4.4,1.3c-1.2,0.9-2.7,2.5-4.6,4.9c-0.3,0.4-0.8,0.7-1.3,0.7 c-0.4,0-0.7-0.1-1-0.4l-7-5.2c-0.8-0.6-1-1.4-0.4-2.3c4.5-7.6,11.1-11.3,19.7-11.3c3.1,0,6.1,0.7,9,2.2c2.9,1.5,5.4,3.5,7.3,6.2	c2,2.7,3,5.6,3,8.7C61.4,32.4,61.1,33.8,60.8,35.1z"/>
	</g>
</svg>