<?xml version="1.0" encoding="utf-8"?>
<!-- Generator: Adobe Illustrator 17.1.0, SVG Export Plug-In . SVG Version: 6.00 Build 0)  -->
<!DOCTYPE svg PUBLIC "-//W3C//DTD SVG 1.1//EN" "http://www.w3.org/Graphics/SVG/1.1/DTD/svg11.dtd">
<svg version="1.1" id="Layer_1" xmlns="http://www.w3.org/2000/svg" xmlns:xlink="http://www.w3.org/1999/xlink" x="0px" y="0px"
	 viewBox="0 0 800 208.3" enable-background="new 0 0 800 208.3" xml:space="preserve">
<path fill="#2f2f6c" d="M113.9,68.6L47.5,183.5c-0.5,0.9-0.9,1.8-1.2,2.8l-0.2,0.8l0.3,0.7l5.2,11.4l0.3,0.7l0.8,0.3
	c0.8,0.3,1.5,0.5,2.1,0.6l1.5,0.3l0.8-1.3l4.2-7.2l2.7-4.8l67-116l1.8-3.2L113.9,68.6L113.9,68.6z"/>
<polygon fill="#2f2f6c" points="155,47.2 151.9,68 151.9,74.9 212.1,179.1 231.1,179.1 "/>
<path fill="#2f2f6c" d="M235.1,187.1c-0.1-0.3-0.2-0.6-0.3-0.8l-0.1-0.2l-0.5-1.4h-1.5l-13.9,0.1H72.2c-2.5,4.3-6.9,11.6-9.8,16.5
	h161.1h0c1.9,0,3.7-0.4,5.4-1.1l0.7-0.3l0.3-0.7l5.1-10.6l0.3-0.7L235.1,187.1z"/>
<path fill="#2f2f6c" d="M114,69.4"/>
<polygon fill="#2f2f6c" points="169.4,91.2 165.9,88 152.6,75.6 151.9,75 151.9,74.1 151.9,12.1 151.9,10.1 154,10.1 167.3,10.1 
	169.4,10.1 169.4,12.1 169.4,86.5 "/>
<path fill="#2f2f6c" d="M114.6,72.2"/>
<polygon fill="#2f2f6c" points="132.4,34.9 132.4,14.5 122,14.5 122,23.1 "/>
<polygon fill="#2f2f6c" points="107.7,6.9 122,23.1 168.3,23.1 168.9,22 177.7,6.9 "/>
<path fill="#2f2f6c" d="M133.3,161.6c0,0-7.4,5.5-12.6,4c0,0,25.6,25.6,52.2,1c0,0,8.9-10.3,8.5-17.9l-3.5-1c0,0-4.9,24.2-30.5,21.2
	C147.5,169,141,167.5,133.3,161.6z"/>
<path fill="#2f2f6c" d="M125.6,127.4c0,0-0.8-9.2,3.2-12.8c0,0-35.2,8.5-28.1,44.1c0,0,4.2,13,10.8,16.6l2.6-2.5
	c0,0-18.1-16.8-2.2-37.1C111.8,135.7,116.5,130.9,125.6,127.4z"/>
<path fill="#2f2f6c" d="M159.4,137.4c0,0,8.5,3.6,9.8,8.8c0,0,9.1-35-25.6-45.5c0,0-13.5-2.4-19.7,1.7l1,3.5c0,0,23.4-8.1,33.8,15.5
	C158.6,121.4,160.6,127.7,159.4,137.4z"/>
<path fill="#2f2f6c" d="M146.7,124.6c-3,3.4-8.2,3.7-11.6,0.7c-3.4-3-3.7-8.2-0.7-11.6c3-3.4,8.2-3.7,11.6-0.7
	C149.4,116,149.7,121.2,146.7,124.6z"/>
<path fill="#2f2f6c" d="M125.1,158.2c-3,3.4-8.2,3.7-11.6,0.7c-3.4-3-3.7-8.2-0.6-11.6c3-3.4,8.2-3.7,11.6-0.6
	C127.8,149.6,128.1,154.8,125.1,158.2z"/>
<path fill="#2f2f6c" d="M164.1,159.8c-3,3.4-8.2,3.7-11.6,0.7c-3.4-3-3.7-8.2-0.7-11.6c3-3.4,8.2-3.7,11.6-0.7
	C166.8,151.2,167.1,156.4,164.1,159.8z"/>
<g>
	<path fill="#2f2f6c" d="M325.8,89.5c0,20.1-8.9,32-29.9,32c-8,0-17.1-1.1-24.2-2.6v37.4l-22.7,3.2V29h18l2.2,7.6
		c8-5.8,17.3-9.5,28.6-9.5c18.2,0,27.9,10.8,27.9,31.4V89.5z M271.7,99.7c6,1.3,13.6,2.4,20.1,2.4c8.2,0,11.3-3.9,11.3-12.1V58
		c0-7.4-2.8-11.5-11.2-11.5c-7.4,0-15.4,3.7-20.3,8.2L271.7,99.7L271.7,99.7z"/>
	<path fill="#2f2f6c" d="M358.7,29v63.2c0,4.8,2,7.3,7.3,7.3c5.6,0,15.4-3.3,23.6-7.6V29h22.7v90.6H395l-2.2-7.6
		c-11.3,5.6-25.7,9.5-36.3,9.5c-15.1,0-20.5-10.6-20.5-26.8V29L358.7,29L358.7,29z"/>
</g>
<g>
	<path fill="#2f2f6c" d="M579.5,197.5v-65.9l11.7-1.6v67.5L579.5,197.5L579.5,197.5z"/>
	<path fill="#2f2f6c" d="M633.5,197.5h-9.6l-0.9-3.2c-4.2,2.8-9.2,4.1-13.9,4.1c-8.5,0-12.2-5.9-12.2-13.9c0-9.5,4.1-13.2,13.6-13.2
		h11.2v-4.9c0-5.2-1.4-7-8.9-7c-4.2,0-8.8,0.6-13,1.4l-1.4-8.9c4.4-1.3,10.8-2.2,16-2.2c14.7,0,19,5.2,19,16.9L633.5,197.5
		L633.5,197.5z M621.8,179.8h-8.6c-3.8,0-4.9,1.1-4.9,4.6c0,3.3,1.1,4.7,4.7,4.7c3.5,0,6.6-1.2,8.8-2.4L621.8,179.8L621.8,179.8z"/>
	<path fill="#2f2f6c" d="M679.9,179.5c0,11.3-3.5,18.9-21.5,18.9c-4.7,0-12.3-0.5-18.1-1.6v-65.2L652,130v22.6
		c3.5-1.4,8.7-2.8,13.8-2.8c10.1,0,14.1,6.1,14.1,16L679.9,179.5L679.9,179.5z M652,188.1c2.1,0.3,4.5,0.4,7,0.4
		c7.7,0,9.2-3.1,9.2-8.5v-14.4c0-3.7-1.6-5.8-6-5.8c-3.3,0-7.4,1.3-10.3,2.7L652,188.1L652,188.1z"/>
	<path fill="#2f2f6c" d="M699.7,198.4c-5,0-11.8-1.2-16.1-2.7l1.6-8.9c3.9,1.2,9.1,2,13.9,2c5.2,0,6-1.2,6-4.7
		c0-2.9-0.6-4.3-8.2-6.1c-11.4-2.8-12.8-5.7-12.8-14.7c0-9.4,4.1-13.5,17.5-13.5c4.3,0,10,0.6,14,1.6l-1.2,9.3
		c-3.6-0.7-9.2-1.3-12.9-1.3c-5.1,0-6,1.2-6,4c0,3.7,0.3,4,6.6,5.7c13.1,3.5,14.3,5.2,14.3,14.8
		C716.6,192.9,713.8,198.4,699.7,198.4z"/>
</g>
<path fill="#2f2f6c" d="M502,86.1c0,20.1-8.9,32-29.9,32c-8,0-17.1-1.1-24.2-2.6v37.4l-22.7,3.2V25.7h18l2.2,7.6
	c8-5.8,17.3-9.5,28.6-9.5c18.2,0,27.9,10.8,27.9,31.4V86.1z M447.8,96.4c6,1.3,13.6,2.4,20.1,2.4c8.2,0,11.3-3.9,11.3-12.1v-32
	c0-7.4-2.8-11.5-11.2-11.5c-7.4,0-15.4,3.7-20.3,8.2L447.8,96.4L447.8,96.4z"/>
<path fill="#2f2f6c" d="M589.9,86.1c0,20.1-8.9,32-29.9,32c-8,0-17.1-1.1-24.2-2.6v37.4l-22.7,3.2V25.7h18l2.2,7.6
	c8-5.8,17.3-9.5,28.6-9.5c18.2,0,27.9,10.8,27.9,31.4L589.9,86.1L589.9,86.1z M535.8,96.4c6,1.3,13.6,2.4,20.1,2.4
	c8.2,0,11.3-3.9,11.3-12.1v-32c0-7.4-2.8-11.5-11.2-11.5c-7.4,0-15.4,3.7-20.3,8.2L535.8,96.4L535.8,96.4z"/>
<path fill="#2f2f6c" d="M641.1,99.5c8.7,0,17.9-1.3,27.7-4.3l3.5,17.1c-10.2,3.9-22.5,5.8-33.3,5.8c-28.5,0-38.3-13.2-38.3-35v-24
	c0-19.2,8.6-35.3,37.6-35.3c29,0,35.5,16.9,35.5,36.5v19.3h-50.4v4.7C623.4,95.2,627.3,99.5,641.1,99.5z M623.4,61.4h28.8v-4.5
	c0-8.6-2.6-14.5-13.8-14.5c-11.2,0-15.1,6-15.1,14.5V61.4z"/>
<path fill="#2f2f6c" d="M738.7,114.6c-4.8,2-14.1,3.5-19.9,3.5c-16.6,0-24.9-7.8-24.9-24V43.7h-13.6v-18h13.6V3.2L716.6,0v25.7h23.3
	l-1.5,18h-21.8v47.4c0,4.8,2.2,8,8.2,8c3.3,0,7.4-0.7,11.3-1.9L738.7,114.6z"/>
<g>
	<path fill="#2f2f6c" d="M729.9,130c6.1,0,9.9,4.5,9.9,10c0,5.5-3.8,10-9.9,10c-6.1,0-10-4.5-10-10C719.9,134.4,723.8,130,729.9,130
		z M729.9,147.8c5,0,7.6-3.5,7.6-7.8c0-4.3-2.6-7.8-7.6-7.8c-5.1,0-7.7,3.5-7.7,7.8C722.2,144.2,724.8,147.8,729.9,147.8z
		 M730.2,141.3h-1.9v3h-1.5v-9.2h3.6c2,0,2.9,0.9,2.9,2.4v1.3c0,0.9-0.3,1.6-1.3,2.2l2.4,3.3h-1.9L730.2,141.3z M730.3,136.6h-2v3.3
		h2c1,0,1.3-0.4,1.3-1.1v-1.1C731.7,136.8,731.3,136.6,730.3,136.6z"/>
</g>
</svg>
